<mxfile host="app.diagrams.net" agent="Mozilla/5.0 (Windows NT 10.0; Win64; x64) AppleWebKit/537.36 (KHTML, like Gecko) Chrome/131.0.0.0 Safari/537.36 OPR/116.0.0.0" version="26.0.10">
  <diagram name="Page-1" id="Eq_-9KmVazM0ZB7SRzIH">
    <mxGraphModel dx="1392" dy="753" grid="1" gridSize="10" guides="1" tooltips="1" connect="1" arrows="1" fold="1" page="1" pageScale="1" pageWidth="850" pageHeight="1100" math="0" shadow="0">
      <root>
        <mxCell id="0" />
        <mxCell id="1" parent="0" />
        <mxCell id="421IYU26vhvzubxs-NYg-3" value="Customer&lt;div&gt;&lt;br&gt;&lt;/div&gt;" style="shape=umlActor;verticalLabelPosition=bottom;verticalAlign=top;html=1;outlineConnect=0;" vertex="1" parent="1">
          <mxGeometry x="110" y="170" width="50" height="80" as="geometry" />
        </mxCell>
        <mxCell id="421IYU26vhvzubxs-NYg-5" value="Loan Officer" style="shape=umlActor;verticalLabelPosition=bottom;verticalAlign=top;html=1;outlineConnect=0;" vertex="1" parent="1">
          <mxGeometry x="110" y="280" width="50" height="80" as="geometry" />
        </mxCell>
        <mxCell id="421IYU26vhvzubxs-NYg-6" value="&lt;div&gt;Credit Agency&lt;/div&gt;" style="shape=umlActor;verticalLabelPosition=bottom;verticalAlign=top;html=1;outlineConnect=0;" vertex="1" parent="1">
          <mxGeometry x="110" y="400" width="50" height="80" as="geometry" />
        </mxCell>
        <mxCell id="421IYU26vhvzubxs-NYg-7" value="&lt;div&gt;Loan Manager&lt;/div&gt;" style="shape=umlActor;verticalLabelPosition=bottom;verticalAlign=top;html=1;outlineConnect=0;" vertex="1" parent="1">
          <mxGeometry x="110" y="520" width="50" height="80" as="geometry" />
        </mxCell>
        <mxCell id="421IYU26vhvzubxs-NYg-11" value="Submit Application" style="ellipse;whiteSpace=wrap;html=1;" vertex="1" parent="1">
          <mxGeometry x="280" y="180" width="120" height="80" as="geometry" />
        </mxCell>
        <mxCell id="421IYU26vhvzubxs-NYg-17" value="Bank&lt;div&gt;System&lt;/div&gt;" style="ellipse;whiteSpace=wrap;html=1;" vertex="1" parent="1">
          <mxGeometry x="540" y="130" width="120" height="80" as="geometry" />
        </mxCell>
        <mxCell id="421IYU26vhvzubxs-NYg-37" value="Application" style="ellipse;whiteSpace=wrap;html=1;" vertex="1" parent="1">
          <mxGeometry x="430" y="280" width="170" height="130" as="geometry" />
        </mxCell>
        <mxCell id="421IYU26vhvzubxs-NYg-49" value="" style="endArrow=classic;startArrow=classic;html=1;rounded=0;entryX=0;entryY=0.375;entryDx=0;entryDy=0;entryPerimeter=0;" edge="1" parent="1" source="421IYU26vhvzubxs-NYg-3" target="421IYU26vhvzubxs-NYg-11">
          <mxGeometry width="50" height="50" relative="1" as="geometry">
            <mxPoint x="220" y="250" as="sourcePoint" />
            <mxPoint x="270" y="200" as="targetPoint" />
          </mxGeometry>
        </mxCell>
        <mxCell id="421IYU26vhvzubxs-NYg-51" value="" style="endArrow=none;html=1;rounded=0;exitX=1;exitY=0.5;exitDx=0;exitDy=0;" edge="1" parent="1" source="421IYU26vhvzubxs-NYg-11" target="421IYU26vhvzubxs-NYg-17">
          <mxGeometry width="50" height="50" relative="1" as="geometry">
            <mxPoint x="410" y="185" as="sourcePoint" />
            <mxPoint x="460" y="135" as="targetPoint" />
          </mxGeometry>
        </mxCell>
        <mxCell id="421IYU26vhvzubxs-NYg-52" value="" style="endArrow=none;html=1;rounded=0;entryX=0;entryY=0;entryDx=0;entryDy=0;exitX=1;exitY=1;exitDx=0;exitDy=0;" edge="1" parent="1" source="421IYU26vhvzubxs-NYg-11" target="421IYU26vhvzubxs-NYg-37">
          <mxGeometry width="50" height="50" relative="1" as="geometry">
            <mxPoint x="390" y="220" as="sourcePoint" />
            <mxPoint x="440" y="170" as="targetPoint" />
          </mxGeometry>
        </mxCell>
        <mxCell id="421IYU26vhvzubxs-NYg-53" value="" style="endArrow=none;html=1;rounded=0;entryX=0.5;entryY=1;entryDx=0;entryDy=0;exitX=1;exitY=0;exitDx=0;exitDy=0;" edge="1" parent="1" source="421IYU26vhvzubxs-NYg-37" target="421IYU26vhvzubxs-NYg-17">
          <mxGeometry width="50" height="50" relative="1" as="geometry">
            <mxPoint x="528" y="250" as="sourcePoint" />
            <mxPoint x="540" y="200" as="targetPoint" />
          </mxGeometry>
        </mxCell>
        <mxCell id="421IYU26vhvzubxs-NYg-70" value="" style="endArrow=none;html=1;rounded=0;exitX=1.008;exitY=0.413;exitDx=0;exitDy=0;exitPerimeter=0;" edge="1" parent="1" source="421IYU26vhvzubxs-NYg-71" target="421IYU26vhvzubxs-NYg-37">
          <mxGeometry width="50" height="50" relative="1" as="geometry">
            <mxPoint x="330" y="330" as="sourcePoint" />
            <mxPoint x="380" y="320" as="targetPoint" />
          </mxGeometry>
        </mxCell>
        <mxCell id="421IYU26vhvzubxs-NYg-71" value="Credit Rate" style="ellipse;whiteSpace=wrap;html=1;" vertex="1" parent="1">
          <mxGeometry x="230" y="390" width="120" height="80" as="geometry" />
        </mxCell>
        <mxCell id="421IYU26vhvzubxs-NYg-80" value="Check" style="endArrow=none;html=1;rounded=0;entryX=0;entryY=0.375;entryDx=0;entryDy=0;entryPerimeter=0;exitX=1;exitY=1;exitDx=0;exitDy=0;exitPerimeter=0;" edge="1" parent="1" source="421IYU26vhvzubxs-NYg-5" target="421IYU26vhvzubxs-NYg-71">
          <mxGeometry width="50" height="50" relative="1" as="geometry">
            <mxPoint x="160" y="320" as="sourcePoint" />
            <mxPoint x="210" y="295" as="targetPoint" />
          </mxGeometry>
        </mxCell>
        <mxCell id="421IYU26vhvzubxs-NYg-81" value="Review" style="endArrow=none;html=1;rounded=0;entryX=0;entryY=0.5;entryDx=0;entryDy=0;" edge="1" parent="1" target="421IYU26vhvzubxs-NYg-37">
          <mxGeometry width="50" height="50" relative="1" as="geometry">
            <mxPoint x="160" y="340" as="sourcePoint" />
            <mxPoint x="210" y="290" as="targetPoint" />
          </mxGeometry>
        </mxCell>
        <mxCell id="421IYU26vhvzubxs-NYg-83" value="Check" style="endArrow=none;html=1;rounded=0;" edge="1" parent="1" target="421IYU26vhvzubxs-NYg-71">
          <mxGeometry width="50" height="50" relative="1" as="geometry">
            <mxPoint x="160" y="465" as="sourcePoint" />
            <mxPoint x="210" y="415" as="targetPoint" />
          </mxGeometry>
        </mxCell>
        <mxCell id="421IYU26vhvzubxs-NYg-84" value="Applycation after check" style="ellipse;whiteSpace=wrap;html=1;" vertex="1" parent="1">
          <mxGeometry x="410" y="590" width="150" height="100" as="geometry" />
        </mxCell>
        <mxCell id="421IYU26vhvzubxs-NYg-86" value="" style="strokeWidth=2;html=1;shape=mxgraph.flowchart.annotation_2;align=left;labelPosition=right;pointerEvents=1;" vertex="1" parent="1">
          <mxGeometry x="560" y="580" width="120" height="120" as="geometry" />
        </mxCell>
        <mxCell id="421IYU26vhvzubxs-NYg-87" value="Approve application" style="ellipse;whiteSpace=wrap;html=1;" vertex="1" parent="1">
          <mxGeometry x="680" y="540" width="120" height="80" as="geometry" />
        </mxCell>
        <mxCell id="421IYU26vhvzubxs-NYg-88" value="Reject application" style="ellipse;whiteSpace=wrap;html=1;" vertex="1" parent="1">
          <mxGeometry x="680" y="660" width="120" height="80" as="geometry" />
        </mxCell>
        <mxCell id="421IYU26vhvzubxs-NYg-90" value="" style="endArrow=none;html=1;rounded=0;entryX=0;entryY=0.5;entryDx=0;entryDy=0;" edge="1" parent="1" target="421IYU26vhvzubxs-NYg-84">
          <mxGeometry width="50" height="50" relative="1" as="geometry">
            <mxPoint x="170" y="560" as="sourcePoint" />
            <mxPoint x="220" y="510" as="targetPoint" />
          </mxGeometry>
        </mxCell>
        <mxCell id="421IYU26vhvzubxs-NYg-91" value="" style="endArrow=none;html=1;rounded=0;" edge="1" parent="1" source="421IYU26vhvzubxs-NYg-84">
          <mxGeometry width="50" height="50" relative="1" as="geometry">
            <mxPoint x="480" y="460" as="sourcePoint" />
            <mxPoint x="530" y="410" as="targetPoint" />
          </mxGeometry>
        </mxCell>
        <mxCell id="421IYU26vhvzubxs-NYg-94" value="" style="endArrow=classic;startArrow=classic;html=1;rounded=0;entryX=0.259;entryY=0.946;entryDx=0;entryDy=0;entryPerimeter=0;" edge="1" parent="1" target="421IYU26vhvzubxs-NYg-37">
          <mxGeometry width="50" height="50" relative="1" as="geometry">
            <mxPoint x="170" y="560" as="sourcePoint" />
            <mxPoint x="220" y="510" as="targetPoint" />
          </mxGeometry>
        </mxCell>
        <mxCell id="421IYU26vhvzubxs-NYg-95" value="Evaluate" style="edgeLabel;html=1;align=center;verticalAlign=middle;resizable=0;points=[];" vertex="1" connectable="0" parent="421IYU26vhvzubxs-NYg-94">
          <mxGeometry x="-0.0932" y="-3" relative="1" as="geometry">
            <mxPoint y="2" as="offset" />
          </mxGeometry>
        </mxCell>
        <mxCell id="421IYU26vhvzubxs-NYg-100" value="Forward" style="endArrow=classic;html=1;rounded=0;exitX=0.341;exitY=0.969;exitDx=0;exitDy=0;exitPerimeter=0;" edge="1" parent="1" source="421IYU26vhvzubxs-NYg-37">
          <mxGeometry width="50" height="50" relative="1" as="geometry">
            <mxPoint x="370" y="410" as="sourcePoint" />
            <mxPoint x="180" y="560" as="targetPoint" />
            <Array as="points">
              <mxPoint x="390" y="530" />
            </Array>
          </mxGeometry>
        </mxCell>
      </root>
    </mxGraphModel>
  </diagram>
</mxfile>
